<?xml version="1.0" encoding="UTF-8"?>
<!DOCTYPE svg PUBLIC "-//W3C//DTD SVG 1.1//EN" "http://www.w3.org/Graphics/SVG/1.1/DTD/svg11.dtd">
<!-- Creator: CorelDRAW X8 -->
<svg xmlns="http://www.w3.org/2000/svg" xml:space="preserve" width="210mm" height="297mm" version="1.1" style="shape-rendering:geometricPrecision; text-rendering:geometricPrecision; image-rendering:optimizeQuality; fill-rule:evenodd; clip-rule:evenodd"
viewBox="0 0 21000 29700"
 xmlns:xlink="http://www.w3.org/1999/xlink">
 <defs>
  <style type="text/css">
   <![CDATA[
    .fil0 {fill:#5A7197}
   ]]>
  </style>
 </defs>
 <g id="Camada_x0020_1">
  <metadata id="CorelCorpID_0Corel-Layer"/>
  <g id="_2511277877392">
   <path class="fil0" d="M20940 16153l-10274 -10571c-41,-40 -97,-67 -160,-67 -64,0 -120,25 -162,67l0 0 -5411 5557 0 -1921c0,-132 -104,-241 -233,-241l0 0 -1330 0c-128,0 -235,109 -235,241l0 0 0 3765 -3074 3170c-39,43 -61,100 -61,161 0,133 101,236 225,242l1808 0 8467 -8716 8469 8716 1806 0c124,-6 225,-109 225,-242 0,-61 -22,-118 -61,-161l0 0 1 0z"/>
   <path class="fil0" d="M3141 16750l0 7195c0,133 104,240 233,240l0 0 3935 0c128,0 233,-107 233,-240l0 0 0 -3226c0,-1685 1326,-3047 2962,-3047 1635,0 2962,1364 2962,3047l0 3226c0,133 106,240 235,240l0 0 3929 0c128,0 233,-107 233,-240l0 0 0 -7195 -7365 -7574 -7357 7574z"/>
  </g>
 </g>
</svg>
