<?xml version="1.0" encoding="UTF-8"?>
<!DOCTYPE svg PUBLIC "-//W3C//DTD SVG 1.1//EN" "http://www.w3.org/Graphics/SVG/1.1/DTD/svg11.dtd">
<!-- Creator: CorelDRAW X8 -->
<svg xmlns="http://www.w3.org/2000/svg" xml:space="preserve" width="210mm" height="297mm" version="1.1" style="shape-rendering:geometricPrecision; text-rendering:geometricPrecision; image-rendering:optimizeQuality; fill-rule:evenodd; clip-rule:evenodd"
viewBox="0 0 21000 29700"
 xmlns:xlink="http://www.w3.org/1999/xlink">
 <defs>
  <style type="text/css">
   <![CDATA[
    .fil0 {fill:#5A7197}
   ]]>
  </style>
 </defs>
 <g id="Camada_x0020_1">
  <metadata id="CorelCorpID_0Corel-Layer"/>
  <g id="_1711953440016">
   <g>
    <g>
     <path class="fil0" d="M20600 15489c-768,737 -1788,1143 -2873,1143l-5654 0 0 1107c0,467 -383,850 -850,850l-1446 0c-467,0 -850,-383 -850,-850l0 -1107 -5654 0c-1085,0 -2105,-406 -2873,-1143 -146,-140 -279,-289 -400,-445l0 7716c0,784 642,1425 1425,1425l18150 0c784,0 1425,-641 1425,-1425l0 -7716c-121,156 -254,305 -400,445z"/>
     <path class="fil0" d="M19575 8365l-18150 0c-783,0 -1425,642 -1425,1425l0 3636c138,581 442,1116 894,1549 634,608 1479,944 2379,944l5654 0 0 -1107c0,-467 383,-850 850,-850l1446 0c467,0 850,383 850,850l0 1107 5654 0c900,0 1745,-336 2379,-944 451,-434 756,-968 894,-1550l0 -3635c0,-783 -641,-1425 -1425,-1425z"/>
     <path class="fil0" d="M8008 6940c0,-40 11,-100 63,-151 51,-52 111,-63 151,-63l4556 0c40,0 100,11 151,63 52,51 63,111 63,151l0 713 1211 0 0 -713c0,-365 -139,-729 -417,-1008 -278,-278 -643,-417 -1008,-417l-4556 0c-365,0 -730,139 -1008,417 -278,279 -417,643 -417,1008l0 713 1211 0 0 -713z"/>
     <path class="fil0" d="M11223 17876c74,0 137,-63 137,-138l0 -1106 0 -713 0 -1107c0,-74 -63,-137 -137,-137l-1446 -1c-74,0 -137,63 -137,138l0 1107 0 713 0 1106c0,75 63,138 137,138l1446 0z"/>
    </g>
   </g>
  </g>
  <g id="_1711953439440">
  </g>
  <g id="_1711953440112">
  </g>
  <g id="_1711953437744">
  </g>
  <g id="_1711953437616">
  </g>
  <g id="_1711953437520">
  </g>
  <g id="_1711953437328">
  </g>
  <g id="_1711953437360">
  </g>
  <g id="_1711953436272">
  </g>
  <g id="_1711953436240">
  </g>
  <g id="_1711953435568">
  </g>
  <g id="_1711953434832">
  </g>
  <g id="_1711948995248">
  </g>
  <g id="_1711948996112">
  </g>
  <g id="_1711948993104">
  </g>
  <g id="_1711948993648">
  </g>
 </g>
</svg>
