<?xml version="1.0" encoding="UTF-8"?>
<!DOCTYPE svg PUBLIC "-//W3C//DTD SVG 1.1//EN" "http://www.w3.org/Graphics/SVG/1.1/DTD/svg11.dtd">
<!-- Creator: CorelDRAW X8 -->
<svg xmlns="http://www.w3.org/2000/svg" xml:space="preserve" width="210mm" height="297mm" version="1.1" style="shape-rendering:geometricPrecision; text-rendering:geometricPrecision; image-rendering:optimizeQuality; fill-rule:evenodd; clip-rule:evenodd"
viewBox="0 0 21000 29700"
 xmlns:xlink="http://www.w3.org/1999/xlink">
 <defs>
  <style type="text/css">
   <![CDATA[
    .fil0 {fill:#5A7197}
   ]]>
  </style>
 </defs>
 <g id="Camada_x0020_1">
  <metadata id="CorelCorpID_0Corel-Layer"/>
  <g id="_2096383931232">
   <path class="fil0" d="M15750 13683l0 -2334 -1575 -467c-131,-350 -262,-816 -525,-1166l787 -1400 -1968 -1518 -1443 585c-394,-233 -788,-352 -1313,-467l-524 -1401 -2626 0 -525 1401c-394,117 -919,234 -1312,467l-1445 -585 -1838 1635 789 1400c-262,350 -395,699 -525,1166l-1707 350 0 2334 1575 467c132,350 262,817 525,1167l-657 1283 1838 1634 1576 -701c393,233 787,350 1312,467l394 1518 2624 0 525 -1400c395,-117 918,-234 1314,-467l1574 700 1837 -1633 -787 -1401c263,-350 394,-700 525,-1167l1575 -467 0 0zm-11812 -1166c0,-1985 1706,-3501 3937,-3501 2232,0 3938,1516 3938,3501 0,1983 -1706,3500 -3938,3500 -2231,0 -3937,-1517 -3937,-3500z"/>
   <path class="fil0" d="M9845 12517c0,966 -884,1750 -1970,1750 -1087,0 -1968,-784 -1968,-1750 0,-967 881,-1751 1968,-1751 1086,0 1970,784 1970,1751z"/>
   <path class="fil0" d="M21000 9016l0 -1167 -787 0c0,-233 -132,-466 -263,-583l525 -466 -918 -817 -525 467c-263,-118 -394,-234 -656,-234l0 -701 -1313 0 0 701c-262,0 -524,117 -656,234l-525 -467 -920 817 525 466c-131,234 -262,350 -262,583l-788 0 0 1167 788 0c0,233 133,467 262,583l-525 467 920 816 525 -466c263,118 394,233 656,233l0 701 1313 -1 0 -700c262,0 524,-117 656,-233l525 466 918 -816 -525 -467c131,-233 263,-350 263,-583l787 0zm-3280 583c-788,0 -1313,-466 -1313,-1166 0,-700 525,-1167 1313,-1167 787,0 1312,467 1312,1167 0,700 -525,1166 -1312,1166z"/>
   <path class="fil0" d="M20213 19284c-132,-350 -263,-700 -525,-1050l393 -700 -918 -818 -656 467c-394,-233 -787,-350 -1181,-467l-263 -699 -1313 0 -263 701c-393,117 -787,233 -1181,466l-787 -349 -919 816 394 700c-262,350 -394,700 -525,1050l-656 117 0 1167 787 234c132,350 263,700 525,1050l-393 700 918 816 787 -350c396,233 789,350 1183,467l131 583 1312 0 263 -700c394,-117 787,-233 1181,-467l787 350 919 -816 -525 -583c262,-350 393,-702 525,-1050l787 -234 0 -1167 -787 -234 0 0zm-3806 2567c-1051,0 -1970,-817 -1970,-1750 0,-933 919,-1750 1970,-1750 1050,0 1969,817 1969,1750 0,933 -919,1750 -1969,1750z"/>
  </g>
 </g>
</svg>
