<?xml version="1.0" encoding="UTF-8"?>
<!DOCTYPE svg PUBLIC "-//W3C//DTD SVG 1.1//EN" "http://www.w3.org/Graphics/SVG/1.1/DTD/svg11.dtd">
<!-- Creator: CorelDRAW X8 -->
<svg xmlns="http://www.w3.org/2000/svg" xml:space="preserve" width="210mm" height="297mm" version="1.1" style="shape-rendering:geometricPrecision; text-rendering:geometricPrecision; image-rendering:optimizeQuality; fill-rule:evenodd; clip-rule:evenodd"
viewBox="0 0 21000 29700"
 xmlns:xlink="http://www.w3.org/1999/xlink">
 <defs>
  <style type="text/css">
   <![CDATA[
    .fil0 {fill:none}
    .fil1 {fill:#5A7197}
   ]]>
  </style>
 </defs>
 <g id="Camada_x0020_1">
  <metadata id="CorelCorpID_0Corel-Layer"/>
  <polygon id="Path" class="fil0" points="3065,5636 16295,5636 16295,18865 3065,18865 "/>
  <path id="_D83DDD39-Icon-Color" class="fil1" d="M10500 14850c2900,0 5250,-2089 5250,-4667 0,-2579 -2350,-4668 -5250,-4668 -2900,0 -5250,2089 -5250,4668 0,2578 2350,4667 5250,4667zm0 2333c-3505,0 -10500,1564 -10500,4667l0 1167c0,641 590,1168 1312,1168l18376 0c722,0 1312,-527 1312,-1168l0 -1167c0,-3103 -6995,-4667 -10500,-4667z"/>
 </g>
</svg>
